<?xml version="1.0" standalone="no"?>
<!DOCTYPE svg PUBLIC "-//W3C//DTD SVG 20010904//EN"
 "http://www.w3.org/TR/2001/REC-SVG-20010904/DTD/svg10.dtd">
<svg version="1.0" xmlns="http://www.w3.org/2000/svg"
 width="400.000000pt" height="400.000000pt" viewBox="0 0 400.000000 400.000000"
 preserveAspectRatio="xMidYMid meet">
<metadata>
Created by potrace 1.11, written by Peter Selinger 2001-2013
</metadata>
<g transform="translate(0.000000,400.000000) scale(0.100000,-0.100000)"
fill="#000000" stroke="none">
<path d="M50 3561 c0 -6 128 -161 370 -451 21 -25 53 -64 71 -87 26 -31 42
-42 64 -43 17 -1 225 -2 463 -2 l432 -1 75 -89 c41 -50 73 -93 71 -97 -2 -3
-351 -6 -775 -6 -618 0 -770 -2 -766 -12 2 -7 110 -140 240 -296 l236 -282
1084 0 c597 0 1085 -1 1085 -2 0 -2 -9 -13 -19 -25 -25 -30 -178 -212 -300
-358 -53 -63 -106 -126 -118 -140 -12 -14 -74 -88 -139 -165 -64 -77 -122
-140 -127 -140 -6 0 -84 88 -174 195 -90 107 -175 209 -189 225 -14 17 -60 72
-102 122 l-77 93 -377 0 c-208 0 -378 -2 -378 -4 0 -4 172 -214 234 -286 12
-14 255 -305 540 -648 285 -342 522 -622 526 -622 5 0 39 37 76 82 38 46 76
92 86 103 9 11 407 488 883 1060 476 572 875 1050 886 1063 10 12 19 26 19 30
0 4 -349 7 -775 7 -426 0 -775 3 -775 7 0 3 34 46 75 96 l74 89 461 0 c253 0
462 2 463 4 10 12 462 557 474 571 14 15 -113 17 -1941 16 -1076 0 -1956 -3
-1956 -7z"/>
</g>
</svg>
